<svg width="500" height="500" xmlns="http://www.w3.org/2000/svg" version="1.1">

 <g>
  <title>Layer 1</title>
  <path id="svg_1" fill="#0099FF" d="m249.375,49.625c0.87629,0.00054 1.75258,0.00109 2.65543,0.00165c14.62098,0.04156 28.69183,1.00574 42.96957,4.37335c0.91185,0.21431 1.8237,0.42861 2.76318,0.64941c50.08602,12.22566 95.08507,44.43807 122.40918,88.2295c17.32606,28.81021 29.72471,61.81045 30.06592,95.77343c0.0098,0.80903 0.01959,1.61806 0.02968,2.4516c0.17561,18.28377 -0.04672,35.99916 -4.26796,53.89606c-0.21431,0.91185 -0.42861,1.8237 -0.64941,2.76318c-12.22566,50.08602 -44.43807,95.08507 -88.2295,122.40918c-28.81021,17.32606 -61.81045,29.72471 -95.77343,30.06592c-0.80903,0.0098 -1.61806,0.01959 -2.4516,0.02968c-18.28377,0.17561 -35.99916,-0.04672 -53.89606,-4.26796c-0.91185,-0.21431 -1.8237,-0.42861 -2.76318,-0.64941c-50.08602,-12.22566 -95.08507,-44.43807 -122.40918,-88.2295c-17.32606,-28.81021 -29.72471,-61.81045 -30.06592,-95.77343c-0.0098,-0.80903 -0.01959,-1.61806 -0.02968,-2.4516c-0.17561,-18.28377 0.04672,-35.99916 4.26796,-53.89606c0.21431,-0.91185 0.42861,-1.8237 0.64941,-2.76318c10.65545,-43.6532 36.54914,-83.96171 72.35059,-111.23682c0.56155,-0.43748 1.1231,-0.87495 1.70166,-1.32568c34.67552,-26.796 77.12973,-40.15144 120.67334,-40.04932z"/>
  <path id="svg_3" fill="#F8FCFF" d="m268,123c55.35129,0 55.35129,0 67.39063,11.21094c6.82021,7.58169 7.55053,15.74434 7.10156,25.55469c-0.45843,5.30098 -2.18612,9.08973 -5.49219,13.23437c-0.55688,0.88688 -1.11375,1.77375 -1.6875,2.6875c-7.69232,7.69232 -18.69429,12.03878 -29.47217,12.42603c-1.09973,-0.00524 -2.19946,-0.01048 -3.33252,-0.01587c-1.08136,-0.0025 -2.16272,-0.005 -3.27685,-0.00757c-2.03245,-0.01366 -2.03245,-0.01366 -4.10596,-0.02759c-4.33125,-0.02062 -8.6625,-0.04125 -13.125,-0.0625c0,11.22 0,22.44 0,34c-4.62,0 -9.24,0 -14,0c0,-32.67 0,-65.34 0,-99z"/>
  <path id="svg_5" fill="#F6FBFF" d="m205.3125,121.8125c1.22493,-0.01837 1.22493,-0.01837 2.47461,-0.03711c11.68716,-0.02794 22.88008,3.84242 31.58789,11.84961c5.23574,5.71769 9.9718,13.1712 10,21.125c-0.12375,1.0725 -0.2475,2.145 -0.375,3.25c-4.62,0 -9.24,0 -14,0c-0.58781,-2.50594 -0.58781,-2.50594 -1.1875,-5.0625c-2.08329,-7.47871 -4.57558,-11.88246 -11.375,-15.8125c-8.34114,-4.36573 -19.58598,-4.86601 -28.60156,-2.18359c-8.59074,4.13964 -14.47803,10.91571 -17.88233,19.78466c-1.66885,5.72946 -1.36431,11.53166 -1.39111,17.46143c-0.03287,1.26393 -0.06574,2.52785 -0.09961,3.83008c-0.06219,10.92879 2.91592,19.65967 9.73242,28.25976c7.10472,6.78178 16.25288,8.08895 25.66407,8.00782c6.77244,-0.61491 13.36947,-3.37368 18.14062,-8.28516c3.84353,-5.49076 4.91646,-10.40848 6,-17c4.95,0 9.9,0 15,0c0,9.64548 -2.73522,16.46333 -8.89062,23.89453c-8.71959,8.70344 -19.48299,12.42689 -31.60865,12.57398c-0.96961,-0.01024 -1.93923,-0.02047 -2.93823,-0.03101c-1.01409,-0.0083 -2.02818,-0.0166 -3.073,-0.02515c-7.12906,-0.16149 -13.21828,-0.77655 -19.4895,-4.41235c-0.86496,-0.49758 -1.72992,-0.99516 -2.62109,-1.50781c-11.23636,-7.17925 -17.9805,-18.3171 -21.02344,-31.22656c-1.82533,-16.76897 -1.84407,-33.1955 8.8164,-47.0586c0.90493,-1.09248 0.90493,-1.09248 1.82813,-2.20703c0.50016,-0.63551 1.00031,-1.27102 1.51562,-1.92578c8.66921,-9.87326 21.18753,-13.25191 33.79688,-13.26172z"/>
  <path id="svg_6" fill="#0299FF" d="m325,267c6.19146,3.17248 9.03905,8.1993 11.30859,14.57031c1.45952,5.12894 1.86304,9.98127 1.89454,15.30078c0.0057,0.75878 0.0114,1.51756 0.01727,2.29934c0.00942,1.60618 0.01597,3.21238 0.01983,4.81858c0.00962,2.40963 0.04062,4.81836 0.07227,7.22779c0.08767,12.64098 0.10142,27.14933 -9.3125,36.7832c-3.95738,2.76303 -8.23524,3.70964 -13,3c-5.41126,-2.92208 -8.98245,-6.3899 -11.23047,-12.15625c-0.31582,-1.10344 -0.63164,-2.20687 -0.95703,-3.34375c-0.32355,-1.10344 -0.64711,-2.20687 -0.98047,-3.34375c-1.87862,-7.1264 -2.01818,-13.89878 -2.01733,-21.22876c-0.00218,-2.09128 -0.02032,-4.18201 -0.03931,-6.27319c-0.05455,-12.94421 0.90167,-25.34191 9.82227,-35.30664c3.85854,-3.70807 9.43917,-3.13802 14.40234,-2.34766z"/>
  <path id="svg_7" fill="#049AFF" d="m282,133c32.41494,-0.56538 32.41494,-0.56538 42,8c3.9576,4.48528 4,10.24408 4,16c-0.59366,5.41718 -2.36832,9.91436 -6,14c-6.6189,4.08166 -12.31511,6.13571 -20.07812,6.09766c-1.04576,-0.0025 -2.09151,-0.005 -3.16895,-0.00757c-1.98145,-0.01366 -1.98145,-0.01366 -4.00293,-0.02759c-4.2075,-0.02063 -8.415,-0.04125 -12.75,-0.0625c0,-14.52 0,-29.04 0,-44z"/>
  <text transform="matrix(1.04417 0 0 1.16799 -5.91357 -50.8039)" stroke="#007fff" xml:space="preserve" text-anchor="start" font-family="'Open Sans'" font-size="128" id="svg_11" y="354.16105" x="134.64519" stroke-width="0" fill="#F3FAFF">180</text>
 </g>
</svg>